<svg width="192" height="35" viewBox="0 0 192 35" fill="none" xmlns="http://www.w3.org/2000/svg">
<path d="M33.5994 16.0598V19.316C33.5994 19.7673 33.2448 20.0575 32.8579 20.0575H20.0266C19.5752 20.0575 19.285 20.4121 19.285 20.799V33.5981C19.285 34.0494 18.9304 34.3396 18.5435 34.3396H15.2229C14.7715 34.3396 14.4814 33.985 14.4814 33.5981V20.799C14.4814 20.3476 14.1267 20.0575 13.7398 20.0575H0.876275C0.424921 20.0575 0.134766 19.7028 0.134766 19.316V16.0598C0.134766 15.6084 0.4894 15.3183 0.876275 15.3183H13.6754C14.1267 15.3183 14.4169 14.9636 14.4169 14.5768V1.71319C14.4169 1.26184 14.7715 0.97168 15.1584 0.97168H18.4468C18.8982 0.97168 19.1883 1.32632 19.1883 1.71319V14.5123C19.1883 14.9636 19.543 15.2538 19.9298 15.2538H32.7289C33.2448 15.286 33.5994 15.6084 33.5994 16.0598Z" fill="#00B2E3"/>
<path d="M31.5683 28.8585H24.2176C24.0887 28.8585 23.9597 28.9874 23.9597 29.1164V29.4388C23.9597 29.5677 24.0887 29.6967 24.2176 29.6967H31.5683C31.6972 29.6967 31.8262 29.5677 31.8262 29.4388V29.1164C31.7939 28.9874 31.665 28.8585 31.5683 28.8585ZM32.9546 27.5044V27.8268C32.9546 27.9558 32.8256 28.0847 32.6966 28.0847H25.346C25.2171 28.0847 25.0881 27.9558 25.0881 27.8268V27.5044C25.0881 27.3754 25.2171 27.2465 25.346 27.2465H32.6966C32.8578 27.2465 32.9546 27.3754 32.9546 27.5044ZM30.6656 30.7284V31.0507C30.6656 31.1797 30.5366 31.3087 30.4076 31.3087H23.5406C23.057 31.3087 22.6379 31.1797 22.2188 30.954C21.4128 30.4704 20.897 29.6322 20.897 28.6973C20.897 27.988 21.1871 27.3754 21.6385 26.8918C21.7997 26.6984 21.9931 26.5694 22.2188 26.4405C22.4767 26.2793 22.7346 26.1826 22.9925 26.1181C23.0893 26.0859 23.1537 26.0214 23.186 25.9569V25.9247C23.2505 25.6667 23.3472 25.4088 23.4761 25.1832C23.9597 24.3772 24.8302 23.8613 25.7651 23.8613C26.4744 23.8613 27.087 24.1192 27.6028 24.5706C27.7318 24.6996 27.8607 24.8608 27.9897 25.022L28.0541 25.1187C28.1186 25.2154 28.2476 25.2476 28.3443 25.2154C28.3765 25.2154 28.3765 25.2154 28.4088 25.1832L28.441 25.1509C28.6667 25.0542 28.8924 24.9897 29.1503 24.9897C29.4082 24.9897 29.6339 25.0542 29.8273 25.1509C30.0852 25.2799 30.3432 25.5055 30.4721 25.7635C30.5366 25.8924 30.6011 26.0536 30.6333 26.1826V26.2793C30.6333 26.4083 30.5044 26.5372 30.3754 26.5372H30.053C29.9563 26.5372 29.8596 26.4727 29.8273 26.376C29.8273 26.3438 29.8273 26.3438 29.8273 26.3115C29.7951 26.2471 29.7951 26.2148 29.7628 26.1503C29.6339 25.9247 29.376 25.7957 29.1181 25.7957C28.8601 25.7957 28.6022 25.9247 28.4733 26.1503C28.441 26.2148 28.4088 26.2471 28.4088 26.3115C28.3765 26.4083 28.2798 26.505 28.1509 26.505H27.8285C27.6995 26.505 27.6028 26.4083 27.5706 26.3115C27.5706 26.2793 27.5706 26.2793 27.5706 26.2471C27.5383 26.0214 27.4738 25.7635 27.3449 25.57C27.0225 24.9897 26.4099 24.6673 25.7651 24.6673C25.0881 24.6673 24.5078 25.022 24.1854 25.57C24.0242 25.8602 23.9275 26.1826 23.9275 26.4727V26.6017C23.9275 26.7306 23.7985 26.8596 23.6696 26.8596H23.5084C23.186 26.8596 22.8636 26.9563 22.6057 27.1175C22.0254 27.4399 21.703 28.0202 21.703 28.6973C21.703 29.3743 22.0576 29.9224 22.6057 30.277C22.8958 30.4382 23.2182 30.5349 23.5084 30.5349H30.4076C30.5688 30.4704 30.6656 30.5994 30.6656 30.7284ZM28.4088 25.1187C28.3443 25.1509 28.3443 25.1832 28.3121 25.1832C28.3443 25.1187 28.3765 25.1187 28.4088 25.1187Z" fill="#00B2E3"/>
<path d="M6.77602 24.7644C5.16404 24.7644 3.87446 26.054 3.87446 27.666C3.87446 29.2779 5.16404 30.5675 6.77602 30.5675C8.388 30.5675 9.67758 29.2779 9.67758 27.666C9.70982 26.0862 8.388 24.7644 6.77602 24.7644ZM6.35691 23.9262V22.024C6.35691 21.8951 6.48586 21.7661 6.61482 21.7661H6.93722C7.06618 21.7661 7.19513 21.8951 7.19513 22.024V23.9262C7.19513 24.0551 7.06618 24.1841 6.93722 24.1841H6.61482C6.48586 24.1518 6.35691 24.0551 6.35691 23.9262ZM12.7403 27.537V27.8594C12.7403 27.9883 12.6114 28.1173 12.4824 28.1173H10.5803C10.4513 28.1173 10.3224 27.9883 10.3224 27.8594V27.537C10.3224 27.408 10.4513 27.2791 10.5803 27.2791H12.4824C12.6114 27.2791 12.7403 27.3758 12.7403 27.537ZM7.19513 31.4702V33.3723C7.19513 33.5013 7.06618 33.6303 6.93722 33.6303H6.61482C6.48586 33.6303 6.35691 33.5013 6.35691 33.3723V31.4702C6.35691 31.3413 6.48586 31.2123 6.61482 31.2123H6.93722C7.09841 31.2445 7.19513 31.309 7.19513 31.4702ZM2.97175 28.1173H1.06962C0.940664 28.1173 0.811707 27.9883 0.811707 27.8594V27.537C0.811707 27.408 0.940664 27.2791 1.06962 27.2791H2.97175C3.10071 27.2791 3.22967 27.408 3.22967 27.537V27.8594C3.22967 27.9883 3.10071 28.1173 2.97175 28.1173ZM8.32352 24.4098C8.29128 24.3453 8.32352 24.2808 8.35576 24.2163L9.32294 22.5721C9.38742 22.4431 9.54862 22.4109 9.67758 22.4754L9.93549 22.6366C10.0645 22.7011 10.0967 22.8623 10.0322 22.9912L9.06503 24.6354C9.03279 24.6999 8.93607 24.7644 8.83935 24.7644C8.80711 24.7644 8.74263 24.7644 8.71039 24.7322L8.45248 24.571C8.388 24.5065 8.32352 24.4742 8.32352 24.4098ZM11.9666 30.5675L11.8054 30.8254C11.7731 30.8899 11.6764 30.9544 11.5797 30.9544C11.5475 30.9544 11.483 30.9544 11.4508 30.9221L9.80653 29.955C9.67758 29.8905 9.64534 29.7293 9.70982 29.6003L9.87101 29.3424C9.93549 29.2134 10.0967 29.1812 10.2256 29.2457L11.8699 30.2129C11.9988 30.2774 12.0311 30.4386 11.9666 30.5675ZM5.22852 31.1801L4.26134 32.8243C4.2291 32.8888 4.13238 32.9532 4.03566 32.9532C4.00342 32.9532 3.93894 32.9532 3.9067 32.921L3.64878 32.7598C3.58431 32.7276 3.55207 32.6631 3.51983 32.5986C3.48759 32.5341 3.51983 32.4696 3.55207 32.4052L4.51925 30.7609C4.58373 30.632 4.74493 30.5997 4.87389 30.6642L5.1318 30.8254C5.26076 30.8899 5.293 31.0511 5.22852 31.1801ZM1.55322 24.8289L1.71441 24.571C1.77889 24.442 1.94009 24.4098 2.06905 24.4742L3.71326 25.4414C3.77774 25.4737 3.80998 25.5381 3.84222 25.6026C3.87446 25.6671 3.84222 25.7316 3.80998 25.7961L3.64878 26.0217C3.61655 26.0862 3.51983 26.1507 3.42311 26.1507C3.39087 26.1507 3.32639 26.1507 3.29415 26.1184L1.64993 25.1513C1.55322 25.0868 1.52098 24.9256 1.55322 24.8289ZM9.83877 25.4092L11.483 24.442C11.6119 24.3775 11.7731 24.4098 11.8376 24.5387L11.9988 24.7966C12.0633 24.9256 12.0311 25.0868 11.9021 25.1513L10.2579 26.1184C10.2256 26.1507 10.1612 26.1507 10.1289 26.1507C10.0322 26.1507 9.96773 26.1185 9.90325 26.0217L9.74206 25.7638C9.67758 25.6349 9.70982 25.5059 9.83877 25.4092ZM10.0322 32.4052C10.0645 32.4696 10.0645 32.5341 10.0645 32.5986C10.0322 32.6631 9.99997 32.7276 9.93549 32.7598L9.67758 32.921C9.64534 32.9532 9.58086 32.9532 9.54862 32.9532C9.4519 32.9532 9.38742 32.921 9.32294 32.8243L8.35576 31.1801C8.29128 31.0511 8.32352 30.8899 8.45248 30.8254L8.71039 30.6642C8.83935 30.5997 9.00055 30.632 9.06503 30.7609L10.0322 32.4052ZM3.71326 29.955L2.06905 30.9221C2.03681 30.9544 1.97233 30.9544 1.94009 30.9544C1.84337 30.9544 1.77889 30.9221 1.71441 30.8254L1.55322 30.5675C1.48874 30.4386 1.52098 30.2774 1.64993 30.2129L3.29415 29.2457C3.42311 29.1812 3.58431 29.2134 3.64878 29.3424L3.80998 29.6003C3.87446 29.7615 3.84222 29.8905 3.71326 29.955ZM3.51983 22.9912C3.45535 22.8623 3.48759 22.7011 3.61655 22.6366L3.87446 22.4754C4.00342 22.4109 4.16462 22.4431 4.2291 22.5721L5.19628 24.2163C5.22852 24.2808 5.22852 24.3453 5.22852 24.4098C5.19628 24.4742 5.16404 24.5387 5.09956 24.571L4.84165 24.7322C4.80941 24.7644 4.74493 24.7644 4.71269 24.7644C4.61597 24.7644 4.55149 24.7321 4.48701 24.6354L3.51983 22.9912Z" fill="#00B2E3"/>
<path d="M29.6017 9.09628C29.6017 9.193 29.6017 9.32195 29.6017 9.41867C29.5694 9.96674 29.376 10.4503 29.0858 10.9017C28.9569 11.0951 28.7957 11.2886 28.6345 11.482C28.3121 11.8044 27.9575 12.0623 27.5706 12.1913C27.1515 12.3525 26.7646 12.4492 26.281 12.4492C25.3461 12.4492 24.5401 12.1268 23.9275 11.5142C23.7663 11.353 23.6051 11.1596 23.4762 10.9339C23.1215 10.4181 22.9603 9.83779 22.9603 9.12852C22.9603 8.64493 23.0893 8.09685 23.3472 7.51654C23.4439 7.25863 23.5729 7.0007 23.7341 6.77503C23.7986 6.67831 23.9275 6.4204 24.1854 6.06576C24.3144 5.87233 24.4756 5.61441 24.669 5.35649C24.8302 5.09857 25.0237 4.77618 25.2493 4.48602C25.3783 4.29258 25.5072 4.06691 25.6362 3.84123V3.809C25.7652 3.58332 25.8941 3.35764 25.9908 3.13197C26.0553 2.97077 26.1198 2.8418 26.1843 2.71285C26.281 2.55165 26.5389 2.55165 26.6356 2.74509L26.6679 2.80957C26.8936 3.29316 27.2159 3.87347 27.5061 4.42155C28.3766 5.77561 28.8602 6.58159 28.9891 6.74279C29.3438 7.61325 29.6017 8.41925 29.6017 9.09628ZM28.699 9.12852C28.699 9.06404 28.6667 8.99956 28.6345 8.96732L28.6022 8.93508C28.57 8.90284 28.5055 8.8706 28.441 8.8706H28.1831C28.0542 8.8706 27.9252 8.96732 27.9252 9.09628V9.16075C27.8607 10.0635 27.1515 10.7727 26.2165 10.8372H26.1843C26.0553 10.8694 25.9586 10.9662 25.9586 11.0951V11.353C25.9586 11.4498 26.0231 11.5142 26.0876 11.5787C26.1198 11.611 26.152 11.611 26.2165 11.611C26.7968 11.5787 27.3127 11.3853 27.764 10.9984C27.893 10.9017 27.9897 10.7727 28.1187 10.6438C28.4733 10.1924 28.6667 9.70883 28.699 9.12852Z" fill="#00B2E3"/>
<path d="M8.22683 2.71237L12.418 11.8039C12.5147 12.0296 12.3535 12.2553 12.1601 12.2553H1.77892C1.55325 12.2553 1.42429 12.0296 1.48877 11.8039L4.35808 4.71122C4.4548 4.51778 4.71272 4.45331 4.84168 4.61451L5.74438 5.58169C5.87334 5.74289 6.13126 5.71065 6.22798 5.51721L7.64652 2.68014C7.80771 2.51894 8.09787 2.51893 8.22683 2.71237ZM7.5498 7.45158C7.64652 7.51606 7.74323 7.61278 7.83995 7.67726C8.00115 7.77398 8.13011 7.7095 8.29131 7.61278C8.58146 7.45158 9.16177 7.16143 8.96834 6.67783C8.7749 6.09752 8.38803 5.16257 8.22683 4.64674C8.13011 4.38882 7.80771 4.35659 7.67876 4.61451C7.29188 5.35602 6.90501 6.25872 6.51813 7.03247C6.42141 7.22591 6.19574 7.25814 6.03454 7.12919C5.71214 6.80679 5.38975 6.51663 5.13183 6.25872C5.00287 6.12976 4.74496 6.12976 4.68048 6.3232C4.06793 7.90294 3.97121 7.99965 4.90616 8.57997C5.03511 8.67668 5.19631 8.64444 5.29303 8.51548C5.42199 8.35428 5.58319 8.1931 5.71214 7.99966C5.80886 7.8707 6.0023 7.8707 6.13126 7.96742C6.22798 8.0319 6.3247 8.12861 6.38917 8.19309C6.51813 8.32205 6.71157 8.25757 6.84053 8.12861C6.96949 7.93518 7.09844 7.74174 7.2274 7.51607C7.25964 7.38711 7.42084 7.32262 7.5498 7.45158Z" fill="#00B2E3"/>
<path d="M62.2884 7.8635C62.2561 7.70463 62.0949 7.60931 61.9336 7.60931H54.6446C54.4833 7.60931 54.3543 7.70463 54.2898 7.8635L47.4201 29.2152C47.3556 29.4377 47.5169 29.6918 47.7749 29.6918H53.2578C53.419 29.6918 53.548 29.5965 53.6125 29.4377L54.3866 26.6416C54.4188 26.4827 54.5801 26.3874 54.7414 26.3874H61.9014C62.0626 26.3874 62.1916 26.4827 62.2561 26.6416L63.0302 29.4377C63.0624 29.5965 63.2237 29.6918 63.385 29.6918H68.8679C69.1259 29.6918 69.2871 29.4694 69.2226 29.2152L62.2884 7.8635ZM60.2888 21.4943H56.354C56.1282 21.4943 55.9347 21.2719 55.9992 21.0495L57.9666 13.964C58.0633 13.6145 58.5794 13.6145 58.6761 13.964L60.6758 21.0495C60.6758 21.2719 60.5145 21.4943 60.2888 21.4943ZM91.3477 7.60931H85.7035C85.51 7.60931 85.3487 7.76818 85.3487 7.95882V22.4475C85.3487 23.9409 84.3812 24.6716 81.9945 24.6716C79.6078 24.6716 78.6403 23.9091 78.6403 22.4475V7.95882C78.6403 7.76818 78.479 7.60931 78.2855 7.60931H72.5769C72.3833 7.60931 72.2221 7.76818 72.2221 7.95882V23.1147C72.2221 26.578 74.3507 30.0731 81.93 30.0731C89.5415 30.0731 91.6379 26.5463 91.6379 23.1147V7.95882C91.7024 7.76818 91.5412 7.60931 91.3477 7.60931ZM113.924 22.7652C113.827 22.6064 113.86 22.384 114.021 22.2886C115.763 20.9859 116.408 19.6197 116.408 17.2049V14.2182C116.408 10.0241 114.408 7.64109 108.183 7.64109H97.8626C97.6691 7.64109 97.5078 7.79996 97.5078 7.9906V29.3423C97.5078 29.533 97.6691 29.6918 97.8626 29.6918H103.507C103.7 29.6918 103.862 29.533 103.862 29.3423V24.1315C103.862 23.9409 104.023 23.782 104.216 23.782H107.377C107.506 23.782 107.603 23.8455 107.667 23.9408L111.409 29.533C111.473 29.6283 111.602 29.6918 111.699 29.6918H117.956C118.246 29.6918 118.407 29.3741 118.246 29.1199L113.924 22.7652ZM110.215 16.9507C110.215 18.2216 109.602 18.8571 108.022 18.8571H104.249C104.055 18.8571 103.894 18.6982 103.894 18.5076V13.0426C103.894 12.8519 104.055 12.6931 104.249 12.6931H108.022C109.635 12.6931 110.215 13.2968 110.215 14.5359V16.9507ZM131.534 7.22803C124.535 7.22803 121.665 10.596 121.665 14.4088V22.9876C121.665 26.8005 124.503 30.1684 131.534 30.1684C138.565 30.1684 141.371 26.7687 141.371 22.9559V14.377C141.371 10.5325 138.533 7.22803 131.534 7.22803ZM135.017 22.1615C135.017 23.7502 133.953 24.6716 131.502 24.6716C129.115 24.6716 127.986 23.7502 127.986 22.1615V15.1396C127.986 13.5509 129.051 12.6295 131.502 12.6295C133.888 12.6295 135.017 13.5509 135.017 15.1396V22.1615ZM163.173 22.7652C163.077 22.6064 163.109 22.384 163.27 22.2886C165.012 20.9859 165.657 19.6197 165.657 17.2049V14.2182C165.657 10.0241 163.657 7.64109 157.433 7.64109H147.112C146.918 7.64109 146.757 7.79996 146.757 7.9906V29.3423C146.757 29.533 146.918 29.6918 147.112 29.6918H152.756C152.949 29.6918 153.111 29.533 153.111 29.3423V24.1315C153.111 23.9409 153.272 23.782 153.465 23.782H156.626C156.755 23.782 156.852 23.8455 156.916 23.9408L160.658 29.533C160.722 29.6283 160.851 29.6918 160.948 29.6918H167.269C167.56 29.6918 167.721 29.3741 167.56 29.1199L163.173 22.7652ZM159.464 16.9507C159.464 18.2216 158.852 18.8571 157.271 18.8571H153.498C153.304 18.8571 153.143 18.6982 153.143 18.5076V13.0426C153.143 12.8519 153.304 12.6931 153.498 12.6931H157.271C158.852 12.6931 159.464 13.2968 159.464 14.5359V16.9507ZM191.975 29.2152L185.073 7.8635C185.04 7.70463 184.879 7.60931 184.718 7.60931H177.397C177.235 7.60931 177.106 7.70463 177.042 7.8635L170.172 29.2152C170.108 29.4377 170.269 29.6918 170.527 29.6918H176.01C176.171 29.6918 176.3 29.5965 176.365 29.4377L177.139 26.6416C177.171 26.4827 177.332 26.3874 177.493 26.3874H184.653C184.815 26.3874 184.944 26.4827 185.008 26.6416L185.782 29.4377C185.814 29.5965 185.976 29.6918 186.137 29.6918H191.62C191.878 29.6918 192.071 29.4377 191.975 29.2152ZM183.041 21.4943H179.106C178.88 21.4943 178.687 21.2719 178.751 21.0495L180.719 13.964C180.815 13.6145 181.331 13.6145 181.428 13.964L183.428 21.0495C183.46 21.2719 183.299 21.4943 183.041 21.4943Z" fill="black"/>
</svg>
